<?xml version="1.0" encoding="UTF-8"?>
<svg version="1.1" xmlns="http://www.w3.org/2000/svg" width="75" height="86">
<path d="M0 0 C24.75 0 49.5 0 75 0 C75 28.38 75 56.76 75 86 C50.25 86 25.5 86 0 86 C0 57.62 0 29.24 0 0 Z M30 10 C30 19.24 30 28.48 30 38 C25.71 38 21.42 38 17 38 C21.0169475 43.64543973 25.39675922 48.74121489 30.12817383 53.78613281 C32.59089128 56.41963692 34.90788665 59.06124546 37 62 C40.83945182 60.48147523 42.67491055 58.22197262 45.1875 55 C49.06437476 50.11848659 53.12115018 45.47895861 57.34765625 40.8984375 C59.10942075 39.29374996 59.10942075 39.29374996 59 38 C54.71 38 50.42 38 46 38 C46 28.76 46 19.52 46 10 C40.72 10 35.44 10 30 10 Z M7 50 C7 57.92 7 65.84 7 74 C27.46 74 47.92 74 69 74 C69 66.08 69 58.16 69 50 C67.02 50 65.04 50 63 50 C63 55.94 63 61.88 63 68 C46.5 68 30 68 13 68 C13 62.06 13 56.12 13 50 C11.02 50 9.04 50 7 50 Z " fill="#EFF1F8" transform="translate(0,0)"/>
</svg>
