<?xml version="1.0" encoding="UTF-8"?>
<svg version="1.1" xmlns="http://www.w3.org/2000/svg" width="79" height="96">
<path d="M0 0 C9.24 0 18.48 0 28 0 C28 6.93 28 13.86 28 21 C35.26 21 42.52 21 50 21 C50 36.51 50 52.02 50 68 C33.5 68 17 68 0 68 C0 45.56 0 23.12 0 0 Z " fill="#EFF1F8" transform="translate(13,14)"/>
<path d="M0 0 C26.07 0 52.14 0 79 0 C79 31.68 79 63.36 79 96 C52.93 96 26.86 96 0 96 C0 64.32 0 32.64 0 0 Z M7 8 C7 34.4 7 60.8 7 88 C27.46 88 47.92 88 69 88 C73.11495574 52.26385683 73.11495574 52.26385683 63.56591797 17.33544922 C54.48271083 8.18137641 44.72717349 7.00063742 32.37353516 6.60693359 C23.9036709 6.7172444 15.45083451 7.42192989 7 8 Z " fill="#EFF1F8" transform="translate(0,0)"/>
<path d="M0 0 C4.15358254 3.43469325 7.78875342 6.63270466 11 11 C7.37 11 3.74 11 0 11 C0 7.37 0 3.74 0 0 Z " fill="#F0F2F6" transform="translate(47,18)"/>
</svg>
